# xmcd
#
# Track frame offsets:
#	182
#	15870
#	25620
#	39502
#	52562
#	68662
#	82302
#	85890
#	102007
#	117057
#	139795
#
# Disc length: 2153 seconds
#
# Revision: 6
# Processed by: cddbd v1.5.1PL2 Copyright (c) Steve Scherf et al.
# Submitted via: MusicManager 7.3.0.0 
#
DISCID=7508670b
DTITLE=Eagles - Desperado
DYEAR=1973
DGENRE=Rock
TTITLE0=Doolin-Dalton
TTITLE1=Twenty-One
TTITLE2=Out of Control
TTITLE3=Tequila Sunrise
TTITLE4=Desperado
TTITLE5=Certain Kind of Fool
TTITLE6=Doolin-Dalton (Instrumental)
TTITLE7=Outlaw Man
TTITLE8=Saturday Night
TTITLE9=Bitter Creek
TTITLE10=Desperado (Reprise)
EXTD=
EXTT0=
EXTT1=
EXTT2=
EXTT3=
EXTT4=
EXTT5=
EXTT6=
EXTT7=
EXTT8=
EXTT9=
EXTT10=
PLAYORDER=
